#!OML:ASF H:\Terrain\Patient Classification 1\Walking\liu\liu.ASF
:FULLY-SPECIFIED
:DEGREES
16
root 8.41651 15.401 -30.0038 9.71681 -7.50449 -7.5725
lowerback -4.20372 3.73125 2.05106
upperback 0.73495 4.74068 4.36915
thorax 2.90714 2.36272 3.67523
lowerneck -21.8626 -5.18342 -12.8765
upperneck 16.5241 -5.99179 13.5468
head 9.65839 -2.14111 6.03964
rclavicle -5.47652e-014 1.03368e-014
rhumerus -13.1897 31.5468 -78.3331
rradius 45.4674
rwrist -17.7857
rhand -34.0458 -20.339
rfingers 7.12502
rthumb -7.22373 -50.1957
lclavicle -5.47652e-014 1.03368e-014
lhumerus -55.1264 4.53617 78.625
lradius 15.0635
lwrist -14.1389
lhand -12.4398 -26.2327
lfingers 7.12502
lthumb 13.6331 3.30081
rfemur 21.8249 6.0506 29.8594
rtibia 7.95139e-014
rfoot -7.70124 5.73553
rtoes -24.1638
lfemur -47.6422 5.87493 -10.7761
ltibia 23.4746
lfoot -8.56148 8.36097
ltoes -16.7244
17
root 8.44317 15.3903 -29.7215 9.83986 -7.37621 -7.53413
lowerback -4.37117 3.79083 2.05537
upperback 0.615885 4.81967 4.29158
thorax 2.88126 2.40317 3.6044
lowerneck -21.8617 -5.39363 -13.0009
upperneck 16.4105 -6.22489 13.5047
head 9.65613 -2.26218 6.00434
rclavicle -7.68303e-014 -5.88403e-014
rhumerus -13.1571 30.7174 -78.364
rradius 45.1558
rwrist -17.2458
rhand -33.6676 -19.935
rfingers 7.12502
rthumb -6.85873 -49.8039
lclavicle -7.68303e-014 -5.88403e-014
lhumerus -55.4741 6.01321 76.5596
lradius 14.568
lwrist -16.3768
lhand -12.2771 -26.3622
lfingers 7.12502
lthumb 13.79 3.16076
rfemur 22.6286 5.97044 29.6001
rtibia 0
rfoot -5.81361 5.72061
rtoes -23.9776
lfemur -48.3702 6.19725 -11.3204
ltibia 25.4434
lfoot -4.38885 7.50943
ltoes -15.8122
18
root 8.46871 15.3857 -29.439 9.72144 -7.399 -7.1956
lowerback -4.34224 3.77871 1.65865
upperback 0.59644 4.8318 4.16395
thorax 2.82219 2.40486 3.68929
lowerneck -22.0242 -5.31558 -12.7531
upperneck 16.4776 -6.18022 13.4903
head 9.69341 -2.22081 5.96617
rclavicle 1.2921e-015 2.78299e-015
rhumerus -13.1441 30.1375 -78.4606
rradius 44.9214
rwrist -16.8853
rhand -33.8166 -19.0425
rfingers 7.12502
rthumb -7.00258 -48.9067
lclavicle 1.2921e-015 2.78299e-015
lhumerus -55.8073 7.89759 74.1282
lradius 13.9367
lwrist -18.8986
lhand -12.5507 -26.595
lfingers 7.12502
lthumb 13.5262 2.94569
rfemur 23.6241 5.96069 29.0322
rtibia 1.27222e-014
rfoot -3.59271 5.79175
rtoes -27.6998
lfemur -48.8684 6.53868 -12.0674
ltibia 27.6216
lfoot -1.27023 6.55554
ltoes -14.0636
19
root 8.49277 15.3776 -29.1599 9.66296 -7.28585 -6.64784
lowerback -4.32338 3.64619 1.02154
upperback 0.468761 4.70195 3.95246
thorax 2.65205 2.33461 3.80761
lowerneck -21.9154 -5.11993 -12.4385
upperneck 16.5126 -6.04936 13.5919
head 9.66103 -2.13205 5.97209
rclavicle 4.96962e-016 1.47101e-014
rhumerus -13.565 29.6359 -78.8258
rradius 45.0811
rwrist -16.696
rhand -34.0845 -19
rfingers 7.12502
rthumb -7.26111 -48.8554
lclavicle 4.96962e-016 1.47101e-014
lhumerus -56.3151 8.83351 72.6806
lradius 13.6834
lwrist -19.7588
lhand -12.7924 -26.6634
lfingers 7.12502
lthumb 13.2933 2.89264
rfemur 24.4517 5.80339 28.2654
rtibia 9.22361e-014
rfoot -1.54863 4.73611
rtoes -21.9327
lfemur -49.438 6.81901 -13.0936
ltibia 29.9737
lfoot 0.021901 5.86394
ltoes -12.2016
20
root 8.51598 15.3685 -28.8826 9.67677 -6.86557 -6.01837
lowerback -4.39928 3.5723 0.395338
upperback 0.322254 4.64726 3.69751
thorax 2.51745 2.30311 3.88702
lowerneck -21.6002 -5.22559 -12.2376
upperneck 16.2246 -6.25593 13.5299
head 9.52615 -2.23359 5.87201
rclavicle -1.25234e-014 3.97569e-015
rhumerus -14.1306 28.6083 -79.119
rradius 45.1621
rwrist -16.4775
rhand -34.2698 -19.3092
rfingers 7.12502
rthumb -7.43998 -49.1584
lclavicle -1.25234e-014 3.97569e-015
lhumerus -56.5512 9.35121 71.4768
lradius 13.4491
lwrist -20.4692
lhand -12.4801 -27.0857
lfingers 7.12502
lthumb 13.5943 2.45044
rfemur 22.1195 5.29652 27.4463
rtibia 6.00327
rfoot -2.12412 4.5761
rtoes -19.8031
lfemur -50.0671 6.99485 -14.2904
ltibia 32.3533
lfoot 0.756803 5.51651
ltoes -11.6199
21
root 8.53701 15.3673 -28.6002 9.64208 -6.59062 -5.36297
lowerback -4.49001 3.61825 -0.310382
upperback 0.21022 4.75362 3.51545
thorax 2.40397 2.35136 4.09888
lowerneck -21.5511 -5.53002 -12.3186
upperneck 16.2339 -6.63371 13.404
head 9.57312 -2.42911 5.77968
rclavicle 6.05299e-014 5.96354e-015
rhumerus -14.6978 27.2707 -79.25
rradius 45.0085
rwrist -16.0366
rhand -34.0768 -19.604
rfingers 7.12502
rthumb -7.25374 -49.4597
lclavicle 6.05299e-014 5.96354e-015
lhumerus -56.6631 10.3702 69.7227
lradius 12.9673
lwrist -22.4021
lhand -12.0304 -27.8748
lfingers 7.12502
lthumb 14.0277 1.63186
rfemur 20.7025 4.92486 26.5875
rtibia 10.2355
rfoot -1.49021 3.9363
rtoes -20.8632
lfemur -50.4947 7.16815 -15.4036
ltibia 34.6935
lfoot 1.39837 5.47495
ltoes -11.5818
22
root 8.5611 15.3566 -28.3169 9.57979 -6.36192 -4.77341
lowerback -4.54131 3.56134 -0.99755
upperback 0.0741237 4.72057 3.41745
thorax 2.24741 2.33194 4.37603
lowerneck -21.6498 -5.61286 -12.566
upperneck 16.5251 -6.73187 13.5965
head 9.72417 -2.46529 5.88682
rclavicle 1.12313e-014 -6.36111e-015
rhumerus -15.2308 26.3269 -79.4711
rradius 44.6837
rwrist -15.6629
rhand -33.4567 -21.1275
rfingers 7.12502
rthumb -6.65506 -51.0029
lclavicle 1.12313e-014 -6.36111e-015
lhumerus -56.9967 11.9458 67.5739
lradius 12.4755
lwrist -24.962
lhand -11.738 -28.2601
lfingers 7.12502
lthumb 14.3094 1.22681
rfemur 19.5845 4.2267 25.6008
rtibia 13.9394
rfoot 0.392548 3.48958
rtoes -19.8995
lfemur -50.821 7.23141 -16.3843
ltibia 36.8712
lfoot 0.710803 4.65971
ltoes -12.4031
23
root 8.58767 15.3387 -28.0412 9.45643 -5.91601 -4.4562
lowerback -4.59037 3.4542 -1.264
upperback 0.0491394 4.59455 3.31934
thorax 2.24646 2.2668 4.41898
lowerneck -21.3953 -5.6244 -12.9422
upperneck 16.3599 -6.7557 14.0997
head 9.66112 -2.45783 6.1301
rclavicle -2.45499e-014 -3.18055e-014
rhumerus -15.4993 25.5604 -79.7057
rradius 44.1957
rwrist -15.7106
rhand -34.8266 -21.1522
rfingers 7.12502
rthumb -7.97744 -50.9817
lclavicle -2.45499e-014 -3.18055e-014
lhumerus -57.0456 13.4489 65.5235
lradius 11.988
lwrist -27.4032
lhand -11.6347 -28.0732
lfingers 7.12502
lthumb 14.409 1.40664
rfemur 18.5268 3.27366 24.934
rtibia 17.6637
rfoot 2.81568 3.08759
rtoes -18.1037
lfemur -51.0834 7.31477 -17.2196
ltibia 38.7317
lfoot 0.593167 3.51287
ltoes -10.5402
24
root 8.61441 15.334 -27.7726 9.33715 -5.48553 -4.07401
lowerback -4.50463 3.42221 -1.48866
upperback -0.0590895 4.57096 3.10247
thorax 2.08896 2.25772 4.30707
lowerneck -20.6913 -5.73931 -13.3247
upperneck 15.8628 -6.92175 14.5058
head 9.42122 -2.54641 6.30469
rclavicle 7.46933e-014 5.725e-014
rhumerus -16.0779 24.5318 -80.049
rradius 43.8165
rwrist -15.7819
rhand -36.8977 -8.74419
rfingers 7.12502
rthumb -9.97595 -38.4878
lclavicle 7.46933e-014 5.725e-014
lhumerus -56.7243 13.5766 64.9181
lradius 11.8089
lwrist -28.0591
lhand -11.3962 -27.2639
lfingers 7.12502
lthumb 14.6388 2.19943
rfemur 17.3067 2.29146 24.2267
rtibia 21.5749
rfoot 4.83065 2.65725
rtoes -17.7637
lfemur -51.1259 7.41906 -18.219
ltibia 40.1543
lfoot 0.408302 2.34517
ltoes -8.71036
